<svg xmlns="http://www.w3.org/2000/svg" viewBox="0 0 136.96 148.13"><defs><style>.cls-1{fill:#c6dbaa;}.cls-2{fill:#f4b3bd;}.cls-3{fill:#ef8b9a;}.cls-4{fill:#fff;}.cls-5{fill:#f5b5be;}</style></defs><g id="圖層_2" data-name="圖層 2"><g id="圖"><path class="cls-1" d="M47.22,69.3c8.61-.43,14.34-5.59,16.3-2S69,74.89,75.74,73.46c7.24-1.53,12.7-6.55,18.91-10,4.15-2.32,17.56-7.23,18.37.85.6,6,8.6,10.31,14.94,7.88s15.09-19.77,2.86-34.68c-6.35-7.74-14.33-10.2-22.48-11.69-.75-.14-1.58-.27-2.43-.4a11.94,11.94,0,0,1-.59,3.71c-1.33,3.8-5.79,8-14.33,8.34h-.77c-8.6,0-13.67-6.12-14.07-11.89a.41.41,0,0,1,0-.11l-1.6.34C63.82,28.32,53.26,35.49,52.2,39.5s2.57,5,5.44,3,6.64-1.15,6,1-5.43,2-3.92,5,5.88,10-2,9.31S47.38,52.4,41.94,56.26,38.62,69.73,47.22,69.3Z"/><path class="cls-2" d="M72.27,76.66A3.44,3.44,0,1,0,75.9,80.1,3.53,3.53,0,0,0,72.27,76.66Z"/><path class="cls-2" d="M104.26,80.1a3.62,3.62,0,1,0,3.62-3.44A3.53,3.53,0,0,0,104.26,80.1Z"/><path class="cls-1" d="M25.28,67.81c-4.44-1.45-3.76-7.38-10.24-7.38S.35,65,0,72.21s6.32,5.08,5.3,7.72-6.15,4.92-3.93,9,11.78,6.5,21.51,0S39.79,72.55,25.28,67.81Z"/><path class="cls-3" d="M124.17,80.1c-5.68,0-6.1,4.83-7.52,8.79a11.62,11.62,0,0,1-9.76,7.55c-4.17.51-8.19-.65-10.46-4.28-2.15-3.43-1.28-10.27-7.05-10.27S85,88.11,83.6,91.62c-1.87,4.56-6.7,6.31-11.57,6.25-3.06,0-6.86-.81-8.54-3.48-2.21-3.52,1.25-6.56-.16-10a7,7,0,0,0-6.49-4.24c-5.53,0-7.42,6.25-8.26,10.56-1.16,6,1.24,11.68,5.8,15.81,10.26,9.31,25.18,5.58,25.18,5.58s2.93,11.8-5.72,25.51a6.36,6.36,0,0,0-1.42,4,6.57,6.57,0,0,0,3.91,5.92,5.26,5.26,0,0,0,2.57.67h.47c10.58,0,14-13,14.49-19.91.1-1.4,1.22-16,.88-16.09,12.63,1.47,28.15-3.35,33.49-15,1.42-3.11,2.88-7,2.88-10.4A6.77,6.77,0,0,0,124.17,80.1Z"/><path class="cls-4" d="M96.79,18.14l.2.05Z"/><path class="cls-4" d="M93.85,17.82h0Z"/><path class="cls-4" d="M95.34,17.9l.23,0Z"/><path class="cls-4" d="M92.28,17.89l.64-.05Z"/><path class="cls-4" d="M89.48,18.29l1.22-.21Z"/><path class="cls-4" d="M91.08,18l.77-.1Z"/><path class="cls-4" d="M98.06,18.54l.1.05Z"/><path class="cls-4" d="M82.81,31.18c-.12-.1-.23-.22-.34-.33C82.58,31,82.69,31.08,82.81,31.18Z"/><path class="cls-4" d="M83.53,31.76l-.39-.3Z"/><path class="cls-4" d="M82.17,30.56l-.31-.36Z"/><path class="cls-4" d="M84.32,32.27A3.74,3.74,0,0,1,83.9,32,3.74,3.74,0,0,0,84.32,32.27Z"/><path class="cls-4" d="M85.18,32.72c-.16-.07-.31-.15-.46-.23C84.87,32.57,85,32.65,85.18,32.72Z"/><path class="cls-4" d="M80.35,27.68c-.06-.16-.1-.31-.15-.47C80.25,27.37,80.29,27.52,80.35,27.68Z"/><path class="cls-4" d="M80.69,28.44c-.07-.14-.13-.29-.19-.43C80.56,28.15,80.62,28.3,80.69,28.44Z"/><path class="cls-4" d="M81.6,29.89c-.1-.13-.18-.26-.27-.38C81.42,29.63,81.5,29.76,81.6,29.89Z"/><path class="cls-4" d="M80.09,26.9c0-.17-.08-.35-.11-.52C80,26.55,80.05,26.73,80.09,26.9Z"/><path class="cls-4" d="M81.11,29.18a4.1,4.1,0,0,1-.23-.4A4.1,4.1,0,0,0,81.11,29.18Z"/><path class="cls-4" d="M102,27.38s0,.05,0,.07S102,27.4,102,27.38Z"/><path class="cls-4" d="M86.11,33.1l-.49-.19Z"/><path class="cls-4" d="M90.22,33.78h0Z"/><path class="cls-4" d="M87.12,33.41l-.54-.16Z"/><path class="cls-4" d="M88.19,33.62l-.57-.1Z"/><path class="cls-4" d="M89.33,33.74l-.61-.05Z"/><path class="cls-4" d="M79.92,26.11a7.28,7.28,0,0,1-.1-.8A7.28,7.28,0,0,0,79.92,26.11Z"/><path class="cls-5" d="M90.7,18.08l.38,0Z"/><path class="cls-5" d="M92.92,17.84h0Z"/><path class="cls-5" d="M97,18.19a9.59,9.59,0,0,1,1.07.35A9.59,9.59,0,0,0,97,18.19Z"/><path class="cls-5" d="M95.57,17.92c.43.06.84.13,1.22.22C96.41,18.05,96,18,95.57,17.92Z"/><path class="cls-5" d="M91.85,17.93l.43,0Z"/><path class="cls-5" d="M93.9,17.82a13.16,13.16,0,0,1,1.44.08A13.16,13.16,0,0,0,93.9,17.82Z"/><path class="cls-5" d="M81.86,30.2l-.26-.31Z"/><path class="cls-5" d="M83.14,31.46l-.33-.28Z"/><path class="cls-5" d="M81.33,29.51l-.22-.33Z"/><path class="cls-5" d="M87.62,33.52l-.5-.11Z"/><path class="cls-5" d="M83.9,32l-.37-.24Z"/><path class="cls-5" d="M82.47,30.85c-.1-.1-.21-.19-.3-.29C82.26,30.66,82.37,30.75,82.47,30.85Z"/><path class="cls-5" d="M80.2,27.21c0-.1-.08-.21-.11-.31C80.12,27,80.16,27.11,80.2,27.21Z"/><path class="cls-5" d="M84.72,32.49l-.4-.22Z"/><path class="cls-5" d="M85.62,32.91l-.44-.19Z"/><path class="cls-5" d="M89.89,33.77c-.19,0-.38,0-.56,0C89.51,33.76,89.7,33.76,89.89,33.77Z"/><path class="cls-5" d="M86.58,33.25l-.47-.15Z"/><path class="cls-5" d="M80,26.38a2.61,2.61,0,0,1-.06-.27A2.61,2.61,0,0,0,80,26.38Z"/><path class="cls-5" d="M88.72,33.69l-.53-.07Z"/><path class="cls-5" d="M80.5,28l-.15-.33Z"/><path class="cls-3" d="M102.24,25.35c0-.14,0-.28,0-.41s0-.22,0-.32v-.1a6.55,6.55,0,0,0-.1-.74.59.59,0,0,0,0-.13,6.74,6.74,0,0,0-.17-.75l0-.12c-.08-.25-.17-.51-.27-.76,0,0,0,0,0,0a7.29,7.29,0,0,0-.37-.74.56.56,0,0,1,0-.08,5.23,5.23,0,0,0-.48-.68l-.09-.12a7,7,0,0,0-.6-.62l-.12-.09a5.53,5.53,0,0,0-.76-.56l-.07,0a7.59,7.59,0,0,0-.9-.46l-.1-.05A9.59,9.59,0,0,0,97,18.19l-.2-.05c-.38-.09-.79-.16-1.22-.22l-.23,0a13.16,13.16,0,0,0-1.44-.08h-1l-.64.05-.43,0-.77.1-.38,0-1.22.21c-5.61,1.11-9.66,2.62-9.66,6.59,0,.14,0,.28,0,.43a7.28,7.28,0,0,0,.1.8,2.61,2.61,0,0,0,.06.27c0,.17.07.35.11.52s.07.21.11.31.09.31.15.47l.15.33c.06.14.12.29.19.43l.19.34a4.1,4.1,0,0,0,.23.4l.22.33c.09.12.17.25.27.38l.26.31.31.36c.09.1.2.19.3.29s.22.23.34.33l.33.28.39.3.37.24a3.74,3.74,0,0,0,.42.27l.4.22c.15.08.3.16.46.23l.44.19.49.19.47.15.54.16.5.11.57.1.53.07.61.05c.18,0,.37,0,.56,0h.94c6.79-.29,10.11-3.3,11-5.88a3.88,3.88,0,0,0,.13-.44s0-.05,0-.07.07-.33.1-.52c0,0,0-.07,0-.1a5.48,5.48,0,0,0,.07-.6.34.34,0,0,0,0-.1c0-.22,0-.45,0-.69ZM87.08,21.07a1.23,1.23,0,0,1,1.72,0c.09.07,1.65,1.38,4.46-.18A1.23,1.23,0,1,1,94.45,23a7.81,7.81,0,0,1-3.78,1.08,5.38,5.38,0,0,1-3.56-1.27A1.23,1.23,0,0,1,87.08,21.07Z"/><path class="cls-5" d="M102,27.45a3.88,3.88,0,0,1-.13.44A3.88,3.88,0,0,0,102,27.45Z"/><path class="cls-5" d="M80.88,28.78l-.19-.34Z"/><path class="cls-4" d="M94.45,23a1.23,1.23,0,1,0-1.19-2.15c-2.81,1.56-4.37.25-4.46.18a1.23,1.23,0,0,0-1.69,1.78,5.38,5.38,0,0,0,3.56,1.27A7.81,7.81,0,0,0,94.45,23Z"/><path class="cls-3" d="M125.47,2.19c-7.43-3.44-15.59-2.62-22.78,1-5.19,2.6-10.4,6.55-13.64,11.46l-.23.33c-.48.75-.32,1.35.27,1.53a1.66,1.66,0,0,0,.75,0,4.53,4.53,0,0,0,1.07-.33,5.75,5.75,0,0,0,2.54-2l0,0c.21-.34.45-.67.68-1l.13-.17s0,0,.09-.1l.42-.5c.36-.41.73-.81,1.12-1.21.14-.13.27-.27.41-.41,0,0,.49-.45.55-.51.46-.41.92-.8,1.39-1.18l.67-.52.45-.32c.59-.42,1.19-.81,1.81-1.19l.25-.15.28-.15c.33-.18.66-.36,1-.53A20.94,20.94,0,0,1,120.91,6C122.6,6.81,127.16,3,125.47,2.19Z"/></g></g></svg>